<svg xmlns="http://www.w3.org/2000/svg" width="600" height="274.322" viewBox="0 0 600 274.322"><path d="M40.419 267.005c.005-.262.027-.67.057-1.21.008-.528.035-1.242.067-2.155a40.818 40.818 0 0 0 4.728-3.425 44.726 44.726 0 0 0 7.828-8.56 36.703 36.703 0 0 0 2.765-4.653c.776-1.567 1.37-3.097 1.787-4.63.427-1.524.627-2.99.627-4.373 0-1.146-.13-2.136-.387-2.99-.248-.857-.597-1.562-1.043-2.13-.462-.576-.997-1.003-1.63-1.284a4.894 4.894 0 0 0-2.054-.427c-1.033 0-2.144.268-3.341.803-1.187.513-2.387 1.322-3.62 2.397-1.216 1.074-2.416 2.398-3.584 3.982-1.17 1.584-2.262 3.446-3.257 5.56-.992 2.122-1.857 4.493-2.6 7.115-.725 2.632-1.257 5.511-1.59 8.657l-.178 1.53c-.706.506-1.42 1.017-2.144 1.509-.73.516-1.4.973-2.027 1.386-.63.422-1.181.784-1.646 1.092-.457.303-.787.52-.984.655-.23.157-.393.394-.457.665-.07.273-.105.556-.105.843 0 .338.056.686.17 1.043.108.357.268.67.462.949.187.287.406.524.635.684.227.17.476.267.736.267.251 0 .832-.291 1.727-.832.897-.551 1.984-1.3 3.276-2.249 0 .968.084 1.862.249 2.725.156.843.446 1.603.862 2.254.408.654.973 1.162 1.679 1.543.713.384 1.619.576 2.74.576.714 0 1.45-.048 2.225-.132.773-.1 1.538-.211 2.292-.349.754-.149 1.5-.313 2.225-.505a60.823 60.823 0 0 0 2.076-.563 59.6 59.6 0 0 0 4.492-1.567c.352-.07.679-.184.933-.368.278-.178.497-.397.681-.635.346-.49.533-1.074.535-1.673 0-.326-.046-.65-.135-.963-.08-.3-.216-.584-.4-.835a1.926 1.926 0 0 0-.681-.565c-.254-.149-.587-.208-.96-.208-.097 0-.216 0-.332.019-.122.01-.243.035-.362.065l-7.526 2.149c-1.135.327-2.04.497-2.719.497a7.259 7.259 0 0 1-1.079-.06c-.262-.04-.48-.089-.64-.164a.508.508 0 0 1-.308-.262.784.784 0 0 1-.079-.374v-.248c0-.1 0-.292.014-.576zM41.9 252.01a43.678 43.678 0 0 1 1.603-5.28c.616-1.621 1.281-3.086 2-4.392.72-1.324 1.43-2.446 2.13-3.382.706-.927 1.382-1.64 2.025-2.148.632-.498 1.192-.755 1.69-.755.397 0 .718.208.95.592.225.392.35 1.011.35 1.865 0 .238-.02.498-.025.774a9.78 9.78 0 0 1-.09.865c-.118.894-.383 1.851-.8 2.854a25.316 25.316 0 0 1-1.537 3.098 39.89 39.89 0 0 1-2.028 3.197 76.842 76.842 0 0 1-2.357 3.144 77.427 77.427 0 0 1-2.476 2.944 83.59 83.59 0 0 1-2.39 2.59c.18-2.08.504-4.072.955-5.966zm31.304 12.785a26.233 26.233 0 0 1-2.665 1.776c-.943.522-1.908.968-2.917 1.335-.992.357-1.935.538-2.832.538-.279 0-.557-.035-.806-.086a2.14 2.14 0 0 1-.705-.322 3.404 3.404 0 0 1-.66-.624 7.677 7.677 0 0 1-.66-1.014 14.978 14.978 0 0 0 3.625-1.503 13.172 13.172 0 0 0 2.89-2.206 9.733 9.733 0 0 0 1.895-2.622c.451-.927.68-1.86.68-2.784 0-.849-.145-1.619-.456-2.314a5.128 5.128 0 0 0-1.238-1.762 5.66 5.66 0 0 0-1.881-1.127 6.403 6.403 0 0 0-2.328-.411c-1.043 0-1.97.184-2.814.546a8.17 8.17 0 0 0-2.289 1.49 9.843 9.843 0 0 0-1.787 2.16c-.51.813-.932 1.667-1.265 2.564a14.06 14.06 0 0 0-.757 2.752 15.55 15.55 0 0 0-.251 2.654c0 1.252.178 2.428.535 3.56.354 1.138.873 2.13 1.579 2.995.718.87 1.62 1.57 2.64 2.05 1.052.51 2.285.759 3.68.759.908 0 1.797-.095 2.665-.303.87-.192 1.72-.461 2.543-.803a21.182 21.182 0 0 0 2.344-1.154 27.561 27.561 0 0 0 2.068-1.33 29.225 29.225 0 0 0 4.2-3.608l-2.895-3.014c-.594.573-1.305 1.167-2.138 1.808zm-11.72-3.33c.03-.46.108-.949.197-1.44.095-.498.238-.985.427-1.466.184-.486.427-.932.735-1.3a3.708 3.708 0 0 1 1.141-.943c.462-.23 1.024-.363 1.66-.363.351 0 .66.233.913.654.238.444.363.979.363 1.668 0 .473-.184.96-.563 1.481a7.677 7.677 0 0 1-1.378 1.414 8.507 8.507 0 0 1-1.768 1.068c-.646.273-1.227.408-1.768.408 0-.33 0-.722.04-1.181h.001zm34.783-11.807c-.273-.106-.806-.17-1.614-.17-.573 0-1.154.124-1.754.367-.595.254-1.195.557-1.768.944-.59.376-1.161.78-1.711 1.213-.512.392-1.017.794-1.514 1.206-.457.37-.854.69-1.178.938-.333.248-.582.367-.75.367-.653 0-1.14.049-1.464.154-.308.103-.462.252-.462.4 0 .265.373.509 1.124.76.743.249 1.825.365 3.236.365.1 0 .262-.06.467-.181.208-.127.435-.303.69-.495.243-.208.497-.438.76-.676.267-.248.504-.48.729-.73-.308 1.9-.67 3.81-1.049 5.745a94.184 94.184 0 0 1-.554 2.616c-.19.927-.387 1.852-.606 2.79-.22.943-.445 1.884-.675 2.824-.23.933-.468 1.838-.706 2.7-.108.185-.165.333-.178.452-.017.12-.026.24-.025.36 0 .28.095.53.268.727.173.208.422.367.74.503a4.5 4.5 0 0 0 1.13.273c.425.064.89.089 1.393.089a1.92 1.92 0 0 0 1.086-.338c.314-.238.6-.535.833-.908a6.27 6.27 0 0 0 .621-1.198c.174-.446.317-.878.447-1.308.11-.422.2-.822.267-1.184.07-.357.13-.624.176-.803.103-.8.232-1.727.38-2.806.144-1.075.32-2.173.469-3.295.162-1.121.337-2.243.505-3.34.178-1.103.327-2.09.462-2.95.133-.873.284-1.851.452-2.93 0-.44.019-.832.089-1.165.06-.33.1-.61.1-.83 0-.213-.143-.373-.416-.486zm25.346 1.265c-.432.178-.83.267-1.222.267a.914.914 0 0 1-.408-.089.84.84 0 0 1-.338-.262c-.097-.119-.167-.294-.232-.508-.076-.192-.095-.47-.095-.779 0-.183.02-.416.054-.689.052-.267.106-.557.152-.849.057-.294.097-.57.143-.846.049-.27.068-.465.068-.613 0-.19-.03-.357-.098-.522a1.557 1.557 0 0 0-.289-.386 1.355 1.355 0 0 0-.405-.241 1.777 1.777 0 0 0-.492-.078c-.473 0-.9.124-1.276.378-.36.262-.692.576-.973.968-.284.362-.54.76-.754 1.205-.23.427-.42.806-.592 1.163h-.155c-.008-.446-.03-.895-.03-1.355v-1.173c0-.262 0-.48-.01-.64a.685.685 0 0 0-.108-.363.423.423 0 0 0-.279-.154 3.19 3.19 0 0 0-.535-.03 3.03 3.03 0 0 0-.505.03.82.82 0 0 0-.335.13.83.83 0 0 0-.244.268c-.08.148-.152.3-.216.456-.11.295-.224.66-.338 1.103-.119.441-.219.938-.343 1.465-.11.56-.214 1.12-.314 1.682-.094.574-.18 1.14-.26 1.687-.297.266-.625.545-1.005.84-.492.373-1.008.714-1.554 1.022a9.615 9.615 0 0 1-1.698.784 4.737 4.737 0 0 1-1.66.324c-.161 0-.315-.016-.464-.051a1.363 1.363 0 0 1-.403-.187 1.726 1.726 0 0 1-.403-.367c-.124-.146-.243-.354-.378-.592a9.01 9.01 0 0 0 2.116-.873 7.876 7.876 0 0 0 1.679-1.287c.448-.445.82-.961 1.1-1.527.266-.5.406-1.058.408-1.625 0-.492-.1-.949-.26-1.351a3.357 3.357 0 0 0-.718-1.03c-.328-.28-.701-.502-1.103-.657a3.794 3.794 0 0 0-1.354-.238c-.606 0-1.157.103-1.65.314-.483.223-.93.515-1.329.867a5.66 5.66 0 0 0-1.043 1.263 7.914 7.914 0 0 0-.733 1.497 8.253 8.253 0 0 0-.457 1.608 10.63 10.63 0 0 0-.135 1.55c0 .724.106 1.41.303 2.075.208.646.516 1.246.924 1.744.406.5.922.892 1.538 1.189.617.303 1.33.438 2.155.438.527 0 1.043-.046 1.554-.165.5-.127.997-.273 1.478-.462.474-.203.93-.44 1.357-.684.43-.262.838-.506 1.211-.773.104-.073.2-.16.303-.236.009.206.011.416.035.612.04.324.114.627.233.878.119.254.284.454.508.616.219.154.51.214.868.214a1.1 1.1 0 0 0 .427-.065c.14-.07.254-.162.362-.303a2.83 2.83 0 0 0 .338-.546c.128-.271.243-.549.343-.832l2.352-6.55h.205c.073.557.157 1.103.273 1.633.12.546.287 1.03.52 1.457.234.435.556.784.959 1.046.403.267.932.403 1.592.403.365 0 .722-.054 1.073-.165.343-.114.69-.249 1.019-.406.327-.16.635-.332.933-.521.278-.176.535-.35.765-.484l.191-3.07c-.391.326-.792.6-1.205.856-.346.23-.735.419-1.14.592h-.001zm-18.267.124c.016-.273.057-.557.105-.843.06-.284.138-.568.254-.86.114-.273.255-.532.433-.748.186-.22.405-.414.665-.552.267-.14.59-.208.968-.208.202 0 .38.122.53.381.14.26.213.57.213.962 0 .29-.114.568-.333.874-.213.3-.486.567-.794.816a4.984 4.984 0 0 1-1.033.63c-.376.16-.719.248-1.032.248 0-.2.005-.432.024-.7zm55.429-3.008c.26 0 .516-.073.765-.192.248-.124.51-.343.77-.64.181-.23.422-.528.733-.9.302-.371.646-.793 1.008-1.247.378-.465.776-.938 1.181-1.46a37.85 37.85 0 0 0 1.208-1.527c.417-.51.79-1.008 1.152-1.481.37-.481.7-.898.981-1.29.552-.748.83-1.478.83-2.165 0-.465-.108-.873-.292-1.246a3.294 3.294 0 0 0-.751-.973 3.704 3.704 0 0 0-1.047-.624 3.171 3.171 0 0 0-1.173-.22c-.427 0-.848.109-1.246.333-.394.214-.684.592-.88 1.098a695.689 695.689 0 0 0-1.91 4.357c-.243.568-.505 1.143-.743 1.73-.26.584-.48 1.122-.705 1.633-.214.494-.408.938-.57 1.33-.165.402-.295.71-.379.897-.07.182-.128.368-.173.557-.035.189-.06.357-.06.516 0 .451.13.814.382 1.092.265.273.562.422.919.422zm91.206 17.475c0-.368-.008-.751-.019-1.152-.01-.419-.01-.864-.01-1.356-.3.382-.632.74-.992 1.067-.411.379-.863.776-1.37 1.152-.498.386-1.028.776-1.58 1.11-.556.368-1.102.671-1.632.955-.533.278-1.027.503-1.506.65-.48.18-.873.253-1.2.253-.297 0-.527-.068-.681-.208a1.25 1.25 0 0 1-.351-.611c-.082-.3-.13-.61-.141-.922a49.64 49.64 0 0 1-.014-1.149c0-.238.044-.635.136-1.205.089-.584.202-1.247.346-2.017.14-.757.297-1.576.462-2.457.165-.881.321-1.746.462-2.576.132-.838.257-1.597.34-2.292.095-.69.136-1.246.136-1.65 0-.415-.22-.77-.676-1.026-.446-.279-1.051-.414-1.816-.414a4.26 4.26 0 0 0-1.803.373c-.536.254-.827.552-.914.903l-2.222 11.42c-.119.59-.294 1.141-.532 1.598-.25.462-.517.873-.83 1.187-.3.327-.63.57-.968.754-.346.17-.684.248-1.022.248a.944.944 0 0 1-.575-.183c-.17-.121-.31-.28-.409-.463a3.31 3.31 0 0 1-.307-1.454s.032-.238.1-.681c.064-.451.159-1.038.278-1.792.119-.725.254-1.55.413-2.492.144-.928.303-1.887.465-2.88.165-.986.333-1.964.481-2.937.16-.973.308-1.852.438-2.652 0-.257-.17-.47-.51-.635-.344-.179-.92-.273-1.714-.314-.47.022-.903.146-1.287.39a3.54 3.54 0 0 0-.997.916 6.389 6.389 0 0 0-.744 1.246c-.205.478-.386.93-.527 1.387-.149.44-.26.854-.338 1.24-.069.3-.123.603-.162.909-.368 2.033-.713 4.07-1.033 6.111-.085.56-.154 1.077-.214 1.575l-.013.015c-.32.35-.657.682-1.01.997-.335.31-.687.6-1.055.87a5.84 5.84 0 0 1-1.035.614c-.343.16-.681.24-.99.24-.421 0-.7-.21-.824-.591-.119-.403-.178-.955-.178-1.663 0-.816.06-1.684.213-2.616.154-.914.314-1.838.492-2.755.179-.924.352-1.822.495-2.687.154-.884.224-1.678.224-2.397 0-.468-.04-.825-.124-1.098a1.457 1.457 0 0 0-.343-.63.955.955 0 0 0-.52-.289 2.573 2.573 0 0 0-.626-.073c-.16 0-.333 0-.506.014-.178.01-.338.01-.508.01-.178 0-.387-.01-.573-.035a2.302 2.302 0 0 1-.549-.148 1.008 1.008 0 0 1-.451-.354c-.103-.168-.238-.34-.362-.511a2.895 2.895 0 0 0-.487-.47c-.192-.12-.465-.184-.814-.184-1.032 0-2.04.221-3.038.654-.997.438-1.94 1.038-2.843 1.781a17.547 17.547 0 0 0-2.485 2.622 20.027 20.027 0 0 0-1.954 3.214 18.338 18.338 0 0 0-1.305 3.468c-.116.44-.205.878-.28 1.314l-.053.043a28.006 28.006 0 0 1-2.676 1.776 20.4 20.4 0 0 1-2.908 1.335c-.992.357-1.936.538-2.839.538a3.91 3.91 0 0 1-.794-.086 2.05 2.05 0 0 1-.717-.322 3.106 3.106 0 0 1-.654-.624 7.18 7.18 0 0 1-.657-1.014 14.723 14.723 0 0 0 3.614-1.503 12.67 12.67 0 0 0 2.88-2.206 9.45 9.45 0 0 0 1.907-2.622c.446-.927.695-1.86.695-2.784a5.83 5.83 0 0 0-.462-2.314 5.247 5.247 0 0 0-1.24-1.762 5.719 5.719 0 0 0-1.877-1.127 6.46 6.46 0 0 0-2.33-.411c-1.04 0-1.978.184-2.827.546a8.492 8.492 0 0 0-2.29 1.49 9.896 9.896 0 0 0-1.78 2.16c-.51.81-.938 1.668-1.274 2.564a15.45 15.45 0 0 0-.743 2.752c-.17.927-.25 1.822-.25 2.654.002.366.019.732.051 1.097-.426.216-.86.442-1.27.636-.667.316-1.321.614-1.937.903-.625.292-1.195.622-1.741.987 0-.963-.035-1.798-.095-2.5-.1-1.114-.31-2.216-.627-3.288-.11-.39-.227-.777-.351-1.162a9.676 9.676 0 0 1-.254-1.127 6.29 6.29 0 0 1-.108-1.265c.048-.165.221-.414.53-.754.308-.344.627-.711.967-1.114.349-.4.668-.827.946-1.26.287-.427.43-.824.43-1.186 0-.179-.014-.387-.043-.646-.025-.238-.14-.476-.32-.7-.167-.228-.467-.417-.853-.576-.382-.149-.944-.238-1.657-.238-.427 0-.825.07-1.173.19-.343.129-.67.297-.974.5a5.82 5.82 0 0 0-.792.686c-.234.248-.453.51-.656.784a112.08 112.08 0 0 0-2.333 2.992c-.6.805-1.103 1.48-1.53 2.035-.41.552-.773 1.033-1.081 1.436-.308.408-.654.813-1.022 1.203a29.907 29.907 0 0 1-1.723 1.65l-.126-.131c-.587.573-1.3 1.167-2.135 1.808a26.325 26.325 0 0 1-2.671 1.776c-.938.522-1.911.968-2.9 1.335-.998.357-1.947.538-2.844.538a3.969 3.969 0 0 1-.8-.086 1.97 1.97 0 0 1-.703-.322 2.84 2.84 0 0 1-.662-.624 8.595 8.595 0 0 1-.66-1.014 15.16 15.16 0 0 0 3.625-1.503 13.092 13.092 0 0 0 2.887-2.206 9.838 9.838 0 0 0 1.892-2.622c.452-.927.692-1.86.692-2.784 0-.849-.16-1.619-.457-2.314a5.2 5.2 0 0 0-1.251-1.762 5.504 5.504 0 0 0-1.87-1.127 6.46 6.46 0 0 0-2.33-.411c-1.033 0-1.977.184-2.825.546a8.464 8.464 0 0 0-2.285 1.49 9.821 9.821 0 0 0-1.78 2.16c-.513.807-.94 1.667-1.271 2.564-.323.846-.555 1.7-.72 2.582-.173.08-.34.165-.521.238a5.255 5.255 0 0 1-2.095.462c-.243 0-.465-.046-.684-.135a1.762 1.762 0 0 1-.586-.463c-.19-.263-.33-.56-.411-.873-.116-.351-.154-.797-.154-1.343 0-.314.03-.7.108-1.173.07-.468.154-.968.249-1.46.089-.497.162-.984.237-1.44.079-.457.12-.814.12-1.063 0-.335-.065-.63-.179-.881a2.174 2.174 0 0 0-.481-.676 2.067 2.067 0 0 0-.722-.413 2.416 2.416 0 0 0-.816-.15c-.83 0-1.546.225-2.19.666a8.243 8.243 0 0 0-1.678 1.63c-.498.649-.933 1.34-1.3 2.084-.379.73-.706 1.41-1.014 2.005h-.238a44.73 44.73 0 0 1-.06-2.338v-1.986c0-.487 0-.838-.021-1.111-.03-.268-.09-.476-.197-.61-.1-.155-.26-.234-.476-.274-.3-.048-.604-.07-.908-.065a5.13 5.13 0 0 0-.87.065c-.233.04-.428.105-.587.22a1.473 1.473 0 0 0-.406.461c-.13.203-.238.457-.367.784-.19.492-.387 1.122-.587 1.895-.178.757-.376 1.595-.576 2.508a77.45 77.45 0 0 0-.554 2.88c-.17.99-.319 1.986-.45 2.983-.13.962-.226 1.892-.296 2.77a26.136 26.136 0 0 0-.12 2.304c0 .594.03 1.176.107 1.74.073.552.197 1.06.405 1.495.203.454.492.8.87 1.063.357.27.852.389 1.468.389.273 0 .522-.046.754-.146.22-.092.427-.262.628-.506a5 5 0 0 0 .559-.932c.195-.379.392-.86.6-1.446l4.022-11.205h.357c.119.95.279 1.882.478 2.79.198.93.487 1.76.893 2.503.402.74.943 1.335 1.638 1.792.694.468 1.6.684 2.71.684.636 0 1.252-.097 1.858-.281.47-.149.929-.329 1.383-.528.083.5.192.99.341 1.471a8.81 8.81 0 0 0 1.584 2.995c.7.857 1.595 1.544 2.633 2.05 1.062.51 2.287.759 3.698.759.903 0 1.797-.095 2.67-.303a15.591 15.591 0 0 0 2.533-.803c.798-.335 1.573-.72 2.322-1.154.754-.43 1.446-.876 2.087-1.33.189-.134.372-.277.559-.415.094.698.288 1.31.614 1.804.357.56.827 1.033 1.4 1.38a6.3 6.3 0 0 0 2.009.775c.76.167 1.584.249 2.467.249 1.233 0 2.522-.141 3.904-.414a28.84 28.84 0 0 0 4.06-1.14 30.81 30.81 0 0 0 3.833-1.65 24.58 24.58 0 0 0 1.565-.89c.221.38.462.744.738 1.082.718.87 1.62 1.57 2.64 2.05 1.063.51 2.293.759 3.698.759a11.4 11.4 0 0 0 2.652-.303 15.13 15.13 0 0 0 2.535-.803 19.91 19.91 0 0 0 2.333-1.154 27.292 27.292 0 0 0 1.737-1.095c.3.652.664 1.242 1.112 1.71.527.54 1.114.96 1.798 1.258.686.292 1.39.433 2.1.433.684 0 1.365-.117 2.03-.333.678-.22 1.33-.512 1.946-.87a10.827 10.827 0 0 0 1.709-1.17c.524-.428.967-.866 1.324-1.276.473 1.2 1.054 2.13 1.714 2.76.649.64 1.478.956 2.457.956.83 0 1.654-.203 2.476-.605.824-.4 1.6-.903 2.314-1.49.097-.077.18-.16.274-.24.18.47.383.887.656 1.192.343.384.727.668 1.156.824a3.9 3.9 0 0 0 1.4.249c.598 0 1.217-.12 1.847-.362.667-.27 1.3-.616 1.887-1.033a13.394 13.394 0 0 0 1.827-1.538 18.279 18.279 0 0 0 1.719-1.94c.143.702.308 1.318.516 1.883.185.512.435.998.744 1.447.297.397.635.713 1.038.932.41.235.897.343 1.465.343a7.66 7.66 0 0 0 1.846-.243c.66-.143 1.33-.357 1.987-.616.685-.27 1.357-.573 2.013-.908.676-.346 1.3-.7 1.887-1.082.559-.346 1.1-.72 1.62-1.121.49-.373.897-.722 1.224-1.063 0-.478-.014-.905-.014-1.3-.01-.384-.01-.757-.01-1.127h-.001zm-95.353-4.05c.027-.459.087-.948.181-1.44.103-.497.246-.984.43-1.465a4.39 4.39 0 0 1 .746-1.3c.312-.389.7-.71 1.14-.943a3.688 3.688 0 0 1 1.65-.363c.362 0 .665.233.908.654.262.444.384.979.384 1.668 0 .473-.195.96-.573 1.481-.37.511-.827.974-1.373 1.414a8.054 8.054 0 0 1-1.779 1.068c-.635.273-1.227.408-1.757.408 0-.33.01-.722.043-1.181v-.001zm21.625 5.956c-.086.4-.244.78-.468 1.121a2.805 2.805 0 0 1-.913.779c-.387.194-.874.29-1.45.29-.478 0-.905-.125-1.28-.339a5.457 5.457 0 0 1-.99-.74c-.286-.268-.53-.522-.749-.741-.206-.209-.39-.31-.56-.323.527-.47 1.037-.96 1.53-1.466l-.05-.053 4.254-4.237c.073.246.154.524.262.862.095.333.184.69.262 1.073.081.381.152.795.2 1.206.054.419.084.824.084 1.227a6.7 6.7 0 0 1-.132 1.34v.001zm15.456-5.955c.04-.46.1-.949.2-1.44.103-.498.249-.985.422-1.466.191-.486.432-.932.743-1.3a3.742 3.742 0 0 1 1.149-.943c.456-.23 1.002-.363 1.646-.363.367 0 .67.233.913.654.238.444.368.979.368 1.668 0 .473-.19.96-.565 1.481-.368.511-.835.974-1.376 1.414a8.476 8.476 0 0 1-1.773 1.068c-.635.273-1.22.408-1.765.408 0-.33.013-.722.038-1.181zm22.96 1.09a13.16 13.16 0 0 1-.403 1.807c-.2.715-.466 1.41-.795 2.076a6.962 6.962 0 0 1-1.16 1.739c-.45.475-.96.708-1.51.708-.347 0-.625-.09-.852-.254a1.851 1.851 0 0 1-.538-.673 2.985 2.985 0 0 1-.278-.95 6.423 6.423 0 0 1-.079-1.086c0-.651.09-1.351.249-2.095a13.4 13.4 0 0 1 .735-2.249c.316-.73.684-1.446 1.13-2.116.427-.679.9-1.27 1.422-1.798.516-.519 1.062-.943 1.646-1.24.587-.311 1.173-.47 1.798-.47l-1.365 6.6v.001zm105.916 1.97c-.713.38-1.403.724-2.095 1.043-.654.316-1.305.614-1.924.903-.622.292-1.198.622-1.738.987 0-.963-.041-1.798-.103-2.5a17.425 17.425 0 0 0-.27-1.863 23.61 23.61 0 0 0-.341-1.425 47.362 47.362 0 0 0-.36-1.162 11.78 11.78 0 0 1-.267-1.127 7.263 7.263 0 0 1-.095-1.265c.035-.165.22-.414.517-.754.308-.344.635-.711.983-1.114.344-.4.66-.827.95-1.26.272-.427.416-.824.416-1.186 0-.179-.017-.387-.036-.646a1.468 1.468 0 0 0-.316-.7c-.19-.228-.473-.417-.865-.576-.386-.149-.927-.238-1.649-.238-.446 0-.843.07-1.186.19-.34.128-.663.296-.963.5-.292.213-.56.426-.794.686a6.04 6.04 0 0 0-.646.784c-.797.984-1.577 1.982-2.341 2.992-.592.805-1.114 1.481-1.525 2.035-.421.552-.776 1.033-1.09 1.436a12.8 12.8 0 0 1-1.034 1.203c-.368.391-.806.843-1.346 1.319l-.364.33-.126-.13c-.576.573-1.29 1.167-2.132 1.808-.83.635-1.73 1.222-2.668 1.776-.95.522-1.911.968-2.903 1.335-1.01.357-1.941.538-2.85.538a3.95 3.95 0 0 1-.794-.086 1.88 1.88 0 0 1-.706-.322 3.059 3.059 0 0 1-.66-.624c-.234-.273-.443-.617-.675-1.014a14.667 14.667 0 0 0 3.63-1.503 12.846 12.846 0 0 0 2.887-2.206 10.222 10.222 0 0 0 1.908-2.622c.452-.927.674-1.86.674-2.784 0-.849-.15-1.619-.446-2.314a5.276 5.276 0 0 0-1.252-1.762 5.586 5.586 0 0 0-1.865-1.127 6.502 6.502 0 0 0-2.344-.411c-1.032 0-1.965.184-2.81.546a8.55 8.55 0 0 0-2.293 1.49c-.687.621-1.27 1.34-1.787 2.16a15.622 15.622 0 0 0-1.273 2.564 15.231 15.231 0 0 0-.743 2.752 14.517 14.517 0 0 0-.25 2.654c0 .313.012.622.034.926a36.52 36.52 0 0 1-1.184.894c-.357.256-.736.513-1.111.743a11.01 11.01 0 0 1-1.133.676 7.592 7.592 0 0 1-1.073.462c-.295.103-.604.16-.916.167-.309 0-.563-.083-.76-.272a1.86 1.86 0 0 1-.478-.725 4.678 4.678 0 0 1-.257-1.051 9.719 9.719 0 0 1-.08-1.228c0-.354.03-.7.064-1.078.094-.689.222-1.373.383-2.049.079-.295.154-.557.227-.765.776-1.876 1.57-3.703 2.404-5.455a105.88 105.88 0 0 0 2.294-5.298 56.655 56.655 0 0 0 1.836-5.482c.538-1.886.884-3.876 1.073-5.987a18.3 18.3 0 0 0 .07-1.616c0-.849-.07-1.684-.2-2.479-.135-.8-.357-1.514-.676-2.114a4.03 4.03 0 0 0-1.19-1.46c-.496-.362-1.096-.556-1.796-.556-.955 0-1.876.303-2.785.9-.9.584-1.75 1.397-2.538 2.457-.8 1.046-1.52 2.273-2.184 3.711-.665 1.452-1.24 3.02-1.75 4.704a44.76 44.76 0 0 0-1.18 5.346 39.25 39.25 0 0 0-.516 5.68 11.04 11.04 0 0 0-3.217.778 12.87 12.87 0 0 0-2.78 1.59 13.46 13.46 0 0 0-2.29 2.178 14.478 14.478 0 0 0-1.72 2.6 13.622 13.622 0 0 0-1.073 2.852c-.26.981-.373 1.946-.373 2.914 0 .938.113 1.846.343 2.735.238.879.587 1.673 1.062 2.363a5.403 5.403 0 0 0 1.768 1.678c.714.422 1.557.625 2.528.625.689 0 1.373-.106 2.054-.32a10.61 10.61 0 0 0 2.02-.872c.679-.363 1.327-.78 1.937-1.25.62-.496 1.2-1.013 1.757-1.55.357.87.784 1.559 1.27 2.092.425.466.913.87 1.45 1.2.497.278.943.462 1.362.546.405.084.719.135.922.135.367 0 .783-.06 1.227-.19.44-.124.897-.289 1.36-.491.484-.21.957-.446 1.416-.706.464-.25.92-.515 1.368-.795a34.35 34.35 0 0 0 2.42-1.666c.218.37.455.727.723 1.058a7.599 7.599 0 0 0 2.636 2.05c1.057.51 2.295.759 3.703.759.89 0 1.778-.095 2.662-.303a15.397 15.397 0 0 0 2.53-.803c.814-.343 1.59-.727 2.333-1.154.735-.43 1.44-.876 2.087-1.33.189-.135.372-.278.558-.418.092.695.28 1.315.604 1.807.368.56.82 1.033 1.4 1.38a6.274 6.274 0 0 0 2.017.775 11.41 11.41 0 0 0 2.462.249c1.225 0 2.522-.141 3.893-.414 1.381-.279 2.74-.66 4.065-1.14a30.673 30.673 0 0 0 3.836-1.65 22.156 22.156 0 0 0 3.227-2.024l-.024-5.03c-.725.545-1.42 1-2.14 1.38l-.001.001zm-52.096 1.605c-.19.292-.384.587-.597.868-.213.26-.444.506-.69.735a3.214 3.214 0 0 1-.76.53c-.256.135-.526.2-.788.2-.53 0-.952-.073-1.276-.219-.344-.154-.587-.34-.765-.581a2.013 2.013 0 0 1-.376-.825 3.71 3.71 0 0 1-.11-.878c0-.76.148-1.597.418-2.522.268-.927.654-1.846 1.17-2.765a12.33 12.33 0 0 1 1.936-2.546 9.74 9.74 0 0 1 2.636-1.906c.016-.01.035.138.045.468.014.305.041.702.041 1.189 0 .497.014 1.054.03 1.649.008.6.03 1.186.048 1.743.01.565.03 1.068.07 1.525.014.334.046.667.098.997-.314.808-.692 1.59-1.13 2.338zm6.185-9.83v-1.19c0-.419.01-.911.03-1.476.01-.557.04-1.181.07-1.862.043-.673.094-1.39.148-2.114.03-.373.1-.979.19-1.822.078-.86.197-1.816.346-2.884.154-1.049.343-2.154.567-3.3.202-1.052.464-2.092.784-3.115.303-.943.646-1.727 1.033-2.321.386-.609.83-.914 1.3-.914.278 0 .473.149.616.47.149.314.22.873.22 1.692 0 .606-.041 1.447-.141 2.487-.07.795-.198 1.625-.387 2.52-.19.883-.408 1.78-.665 2.684-.253.92-.534 1.832-.843 2.735-.298.9-.606 1.768-.911 2.598a111.981 111.981 0 0 1-2.357 5.811v.001zm13.453 5.165c.03-.46.089-.949.184-1.44.105-.498.248-.985.443-1.466.178-.486.427-.932.73-1.3.31-.384.689-.695 1.146-.943.457-.23 1.003-.363 1.657-.363.349 0 .657.233.9.654.251.444.37.979.37 1.668 0 .473-.186.96-.56 1.481-.378.511-.84.974-1.375 1.414a8.14 8.14 0 0 1-1.773 1.068c-.644.273-1.236.408-1.776.408 0-.33.03-.722.054-1.181zm21.616 5.955c-.084.43-.243.802-.465 1.121-.24.323-.548.589-.903.779-.39.194-.87.29-1.446.29-.48 0-.908-.125-1.286-.339a6.191 6.191 0 0 1-.987-.74c-.29-.268-.535-.522-.75-.741-.203-.206-.391-.307-.566-.321.52-.468 1.032-.952 1.532-1.468l-.053-.055 4.26-4.235c.064.246.159.524.253.862.1.333.198.69.268 1.073.09.381.149.795.213 1.206.052.42.079.824.079 1.227 0 .47-.043.919-.149 1.34v.001zm31.866-19.381c.252 0 .517-.073.76-.192.262-.124.506-.343.773-.64.173-.23.414-.528.716-.9.317-.371.655-.793 1.028-1.247.37-.465.765-.938 1.17-1.46.422-.494.824-1.016 1.222-1.527.397-.51.776-1.008 1.14-1.481.363-.481.692-.898.979-1.29.546-.748.835-1.478.835-2.165 0-.465-.11-.873-.297-1.246a3.28 3.28 0 0 0-.746-.973 3.9 3.9 0 0 0-1.038-.624 3.236 3.236 0 0 0-1.176-.22c-.438 0-.849.109-1.251.333-.387.214-.684.592-.879 1.098-.65 1.447-1.287 2.9-1.911 4.357-.262.57-.511 1.148-.746 1.73-.262.584-.487 1.122-.703 1.633-.2.439-.39.882-.57 1.33-.165.402-.295.71-.384.897-.074.18-.134.367-.178.557-.02.189-.052.357-.052.516 0 .451.13.814.384 1.092.249.273.565.422.924.422zm95 16.486c-.706.38-1.39.724-2.066 1.043-.68.316-1.327.614-1.951.903-.625.292-1.2.622-1.744.987 0-.963-.03-1.798-.097-2.5a14.507 14.507 0 0 0-.273-1.863c-.091-.48-.205-.956-.343-1.425-.108-.39-.225-.778-.352-1.162a9.95 9.95 0 0 1-.265-1.127 6.743 6.743 0 0 1-.1-1.265c.033-.165.225-.414.527-.754.303-.344.63-.711.979-1.114.338-.4.665-.827.943-1.26.273-.427.422-.824.422-1.186 0-.179-.01-.387-.043-.646a1.532 1.532 0 0 0-.309-.7c-.189-.228-.473-.417-.864-.576-.387-.149-.938-.238-1.655-.238-.43 0-.827.07-1.176.19-.339.125-.66.293-.956.5a5.384 5.384 0 0 0-.811.686c-.231.249-.448.51-.65.784a149.83 149.83 0 0 0-2.332 2.992c-.603.805-1.113 1.481-1.519 2.035-.427.552-.79 1.033-1.103 1.436-.314.42-.653.822-1.014 1.203-.373.391-.824.843-1.36 1.319-.11.103-.233.215-.36.33l-.126-.13c-.586.573-1.297 1.167-2.13 1.808a27.906 27.906 0 0 1-2.67 1.776c-.936.518-1.91.965-2.914 1.335-.995.357-1.941.538-2.83.538-.29 0-.568-.035-.808-.086a2.167 2.167 0 0 1-.711-.322 3.335 3.335 0 0 1-.663-.624c-.213-.273-.421-.617-.66-1.014a14.711 14.711 0 0 0 3.631-1.503c1.06-.6 2.032-1.342 2.89-2.206.797-.808 1.432-1.684 1.889-2.622.457-.927.687-1.86.687-2.784 0-.849-.15-1.619-.446-2.314a5.336 5.336 0 0 0-1.247-1.762 5.65 5.65 0 0 0-1.873-1.127 6.462 6.462 0 0 0-2.338-.411c-1.038 0-1.96.184-2.83.546a8.667 8.667 0 0 0-2.273 1.49 9.944 9.944 0 0 0-1.792 2.16c-.51.809-.933 1.668-1.265 2.564a15.021 15.021 0 0 0-.75 2.752 14.28 14.28 0 0 0-.248 2.654c0 .369.02.73.05 1.085-.31.22-.624.45-.928.648-.408.273-.825.538-1.252.806-.438.256-.862.48-1.27.683-.414.206-.8.368-1.163.482-.375.13-.7.18-.986.18-.111 0-.243-.08-.384-.253a2.981 2.981 0 0 1-.37-.7 5.481 5.481 0 0 1-.309-.984 5.27 5.27 0 0 1-.13-1.13v-.32c.05-.291.109-.605.19-.918.073-.317.143-.6.222-.89.07-.267.148-.524.23-.767.088-.244.167-.443.243-.587.68-1.354 1.424-2.72 2.203-4.149.775-1.41 1.584-2.846 2.349-4.309.783-1.465 1.53-2.93 2.26-4.403a58.594 58.594 0 0 0 1.883-4.438 32.12 32.12 0 0 0 1.303-4.401c.322-1.462.492-2.903.492-4.303 0-.63-.057-1.246-.16-1.852-.094-.61-.253-1.151-.497-1.627a3.14 3.14 0 0 0-.984-1.162c-.421-.279-.956-.438-1.61-.438-.936 0-1.863.294-2.771.854-.914.576-1.787 1.36-2.638 2.354-.828.998-1.628 2.155-2.406 3.495a42.916 42.916 0 0 0-2.106 4.328 48.144 48.144 0 0 0-1.751 4.82 66.175 66.175 0 0 0-1.341 5.014 48.741 48.741 0 0 0-.849 4.84c-.01.08-.013.152-.022.231-.75-.706-1.53-1.367-2.373-1.944a15.58 15.58 0 0 0-3.495-1.773 11.83 11.83 0 0 0-3.984-.665c-1.673 0-3.163.314-4.498.908a9.737 9.737 0 0 0-3.376 2.498 11.022 11.022 0 0 0-2.122 3.733c-.505 1.419-.743 2.954-.743 4.608 0 .393.037.783.066 1.174a25.52 25.52 0 0 1-2.248 2.008c-.878.657-1.754 1.222-2.632 1.66-.857.446-1.652.654-2.374.654-.732 0-1.33-.149-1.805-.476a3.492 3.492 0 0 1-1.087-1.21 4.967 4.967 0 0 1-.557-1.604 10.585 10.585 0 0 1-.14-1.684c0-.368.016-.805.046-1.335.036-.566.1-1.13.194-1.69.108-.57.243-1.156.43-1.746a5.735 5.735 0 0 1 .74-1.597c.284-.457.662-.85 1.109-1.15.427-.286.957-.44 1.562-.44.26 0 .422.133.503.363.065.248.097.54.097.902 0 .233 0 .506-.032.811-.011.298-.027.58-.027.857 0 .657.11 1.168.324 1.544.22.362.69.556 1.379.556.473 0 .889-.113 1.262-.356.373-.249.69-.557.951-.96a4.56 4.56 0 0 0 .603-1.338 6.09 6.09 0 0 0 .198-1.5 5.04 5.04 0 0 0-.436-2.052 5.04 5.04 0 0 0-1.216-1.646 5.708 5.708 0 0 0-1.857-1.092c-.724-.27-1.519-.397-2.379-.397-.997 0-1.916.183-2.754.554-.84.365-1.6.865-2.279 1.486a9.94 9.94 0 0 0-1.797 2.163 16.409 16.409 0 0 0-1.306 2.603 15.88 15.88 0 0 0-.795 2.765c-.173.89-.262 1.796-.267 2.703 0 .316.013.628.037.936a25.438 25.438 0 0 1-2.58 1.716c-.941.522-1.914.968-2.906 1.335-.987.357-1.941.538-2.844.538-.279 0-.552-.035-.781-.086a1.935 1.935 0 0 1-.714-.322 2.698 2.698 0 0 1-.665-.624c-.219-.273-.432-.617-.665-1.014a14.85 14.85 0 0 0 3.62-1.503 13.05 13.05 0 0 0 2.89-2.206c.813-.808 1.448-1.684 1.9-2.622.456-.927.68-1.86.68-2.784 0-.849-.145-1.619-.454-2.314a5.231 5.231 0 0 0-1.235-1.762 5.58 5.58 0 0 0-1.881-1.127 6.437 6.437 0 0 0-2.322-.41c-1.044 0-1.992.183-2.825.545-.84.367-1.614.87-2.29 1.49a10.26 10.26 0 0 0-1.791 2.16 14.05 14.05 0 0 0-1.268 2.564 16.2 16.2 0 0 0-.754 2.752 16.073 16.073 0 0 0-.244 2.654c0 1.252.176 2.428.517 3.56.367 1.138.884 2.13 1.595 2.995a7.722 7.722 0 0 0 2.64 2.05c1.044.51 2.28.76 3.68.76.908 0 1.805-.096 2.664-.304.87-.194 1.72-.462 2.544-.803a19.821 19.821 0 0 0 2.34-1.154c.73-.43 1.425-.876 2.077-1.33.14-.099.274-.206.411-.307.226.384.471.753.748 1.088a7.844 7.844 0 0 0 2.625 2.05c1.038.51 2.25.76 3.625.76a7.81 7.81 0 0 0 2.343-.363 12.95 12.95 0 0 0 2.225-.968 16.16 16.16 0 0 0 2.044-1.36 23.696 23.696 0 0 0 1.808-1.578c.197-.19.389-.392.582-.59.24.618.527 1.203.875 1.744.6.93 1.365 1.668 2.298 2.25.935.575 2.062.861 3.381.861a6.98 6.98 0 0 0 2.581-.47 8.157 8.157 0 0 0 2.236-1.28 9.61 9.61 0 0 0 1.816-1.896c.53-.736.979-1.536 1.355-2.366.356-.838.64-1.705.838-2.6.186-.895.305-1.792.305-2.665 0-.903-.124-1.817-.338-2.78a11.766 11.766 0 0 0-.984-2.756l.184-.243c.535.351 1.181.8 1.927 1.351.754.511 1.509 1.087 2.282 1.676.248.194.487.393.728.59-.001.122-.012.255-.012.375 0 1.75.14 3.4.427 4.974.295 1.581.7 2.97 1.216 4.165.517 1.192 1.114 2.155 1.817 2.866.7.705 1.451 1.062 2.26 1.062.51 0 1.051-.07 1.632-.208a14.75 14.75 0 0 0 1.803-.576c.606-.23 1.227-.51 1.822-.824a46.926 46.926 0 0 0 1.768-.928c.535-.304 1.077-.64 1.62-.982.161.245.333.482.518.71a7.535 7.535 0 0 0 2.625 2.048c1.06.511 2.289.76 3.695.76.903 0 1.781-.095 2.67-.303.873-.195 1.72-.465 2.528-.803a21.186 21.186 0 0 0 2.343-1.154 29.79 29.79 0 0 0 2.079-1.33c.192-.136.378-.28.567-.422.09.697.274 1.318.595 1.811.354.56.83 1.033 1.411 1.38.57.353 1.246.615 2 .775.765.167 1.584.25 2.463.25 1.235 0 2.527-.142 3.911-.415a29.077 29.077 0 0 0 4.063-1.14 31.014 31.014 0 0 0 3.836-1.65 22.38 22.38 0 0 0 3.222-2.024l-.025-5.03c-.713.545-1.43 1-2.149 1.38v.001zm-99.157-3.06a9.73 9.73 0 0 1 .616-2.906c.177-.47.43-.91.747-1.3a3.582 3.582 0 0 1 1.154-.943c.443-.23.994-.363 1.64-.363.363 0 .66.233.903.654.252.444.373.979.373 1.668 0 .473-.189.96-.557 1.481a7.4 7.4 0 0 1-1.394 1.414 8.21 8.21 0 0 1-1.755 1.068c-.638.273-1.23.408-1.765.408 0-.33.014-.722.038-1.181zm39.995 2.103c-.202.892-.49 1.763-.86 2.6-.368.784-.778 1.43-1.26 1.952-.48.51-.967.765-1.48.765-.582 0-1.077-.117-1.504-.365a3.1 3.1 0 0 1-1.013-.987 4.805 4.805 0 0 1-.555-1.454 8.48 8.48 0 0 1-.18-1.762c0-.909.121-1.868.359-2.855.243-.984.565-1.892.986-2.716.417-.809.909-1.484 1.466-1.995.551-.533 1.135-.8 1.751-.8.457 0 .854.135 1.181.392.338.248.603.597.817 1.03.208.44.365.95.46 1.532.11.592.159 1.233.159 1.922 0 .873-.106 1.781-.327 2.74v.001zm14.496-12.759c.208-1.524.503-3.008.86-4.427.34-1.378.747-2.738 1.221-4.076.452-1.276.928-2.384 1.433-3.347.503-.951 1.003-1.71 1.5-2.273.517-.57.979-.838 1.411-.838.114 0 .184.149.222.451.01.314.03.679.03 1.111-.138 1.36-.457 2.847-.938 4.42a55.336 55.336 0 0 1-1.757 4.741 79.829 79.829 0 0 1-2.15 4.62 73.555 73.555 0 0 1-2.15 4.043c0-1.43.104-2.91.318-4.425zm12.22 10.656c.028-.46.087-.949.184-1.44a8.28 8.28 0 0 1 .427-1.466c.195-.486.438-.932.747-1.3.311-.388.699-.71 1.138-.943.464-.23 1.01-.363 1.656-.363.352 0 .66.233.909.654.243.444.367.979.367 1.668 0 .473-.183.96-.557 1.481a7.49 7.49 0 0 1-1.383 1.414 8.05 8.05 0 0 1-1.78 1.068c-.634.273-1.21.408-1.75.408 0-.33.01-.722.043-1.181h-.001zm21.622 5.955c-.1.43-.256.802-.47 1.121a2.92 2.92 0 0 1-.908.779c-.384.194-.876.29-1.446.29a2.54 2.54 0 0 1-1.282-.339 5.832 5.832 0 0 1-.997-.74c-.29-.268-.53-.522-.749-.741-.205-.208-.39-.309-.556-.322.52-.468 1.034-.952 1.532-1.467l-.052-.055 4.247-4.235c.081.246.17.524.254.862.106.333.2.69.273 1.073.09.381.16.795.208 1.206.052.42.081.824.081 1.227 0 .47-.05.919-.135 1.34v.001zm71.529-1.906c0-.368 0-.751-.017-1.152v-1.356c-.256.321-.6.689-1.008 1.067-.437.405-.892.79-1.365 1.152-.5.386-1.032.776-1.587 1.11a18.33 18.33 0 0 1-1.63.955 9.78 9.78 0 0 1-1.5.651c-.47.179-.873.252-1.205.252-.292 0-.522-.068-.684-.208a1.354 1.354 0 0 1-.343-.611c-.08-.3-.125-.61-.13-.922a21.596 21.596 0 0 1-.025-1.149c0-.238.036-.635.125-1.205.094-.584.219-1.247.357-2.017.135-.757.294-1.576.456-2.457.165-.881.322-1.746.457-2.576.144-.838.26-1.597.352-2.292.094-.69.14-1.246.14-1.65 0-.415-.232-.77-.67-1.026-.462-.279-1.062-.414-1.833-.414-.67 0-1.276.125-1.805.373-.527.254-.825.552-.909.903l-2.214 11.42a6.337 6.337 0 0 1-.546 1.598c-.24.462-.516.873-.816 1.187-.31.327-.63.57-.981.754a2.22 2.22 0 0 1-1.008.248.916.916 0 0 1-.581-.183 1.275 1.275 0 0 1-.406-.463 3.714 3.714 0 0 1-.246-.665 5.055 5.055 0 0 1-.067-.789s.03-.238.1-.681c.073-.451.167-1.038.273-1.792.132-.725.262-1.549.416-2.492.143-.928.303-1.887.465-2.88.17-.986.33-1.964.481-2.937.16-.973.308-1.852.438-2.652 0-.257-.165-.47-.522-.635-.332-.179-.908-.273-1.706-.314-.473.022-.9.146-1.28.39a3.723 3.723 0 0 0-.995.916 6.13 6.13 0 0 0-.744 1.246c-.208.478-.392.93-.527 1.387-.138.44-.257.854-.343 1.24-.079.387-.138.684-.168.909-.403 2.278-.74 4.324-1.027 6.111-.035.227-.06.434-.091.65-.506.405-1.003.79-1.485 1.14-.36.265-.733.513-1.116.743-.373.257-.754.481-1.122.676a8.299 8.299 0 0 1-1.073.462c-.34.108-.638.167-.933.167-.297 0-.535-.083-.748-.272a1.908 1.908 0 0 1-.487-.725 4.986 4.986 0 0 1-.26-1.051 12.32 12.32 0 0 1-.072-1.228c0-.354.008-.7.073-1.078.04-.357.089-.72.164-1.076.06-.349.133-.676.214-.973.06-.295.138-.557.224-.765a115.933 115.933 0 0 1 2.398-5.455c.814-1.744 1.579-3.51 2.292-5.298a57.47 57.47 0 0 0 1.838-5.482c.535-1.96.897-3.964 1.081-5.987.046-.554.06-1.092.06-1.616 0-.849-.06-1.684-.195-2.479-.138-.8-.362-1.514-.665-2.114a4.143 4.143 0 0 0-1.2-1.46c-.503-.362-1.092-.556-1.803-.556-.943 0-1.886.303-2.778.9-.9.584-1.744 1.397-2.544 2.457-.784 1.046-1.52 2.273-2.184 3.711a34.527 34.527 0 0 0-1.733 4.704 43.173 43.173 0 0 0-1.2 5.346 44.41 44.41 0 0 0-.51 5.68 11 11 0 0 0-3.212.778c-1 .416-1.933.954-2.781 1.59a13.1 13.1 0 0 0-2.295 2.178 14.31 14.31 0 0 0-1.722 2.6 13.29 13.29 0 0 0-1.063 2.852c-.255.95-.38 1.93-.373 2.914 0 .938.106 1.846.344 2.735.232.879.58 1.673 1.057 2.363a5.422 5.422 0 0 0 1.757 1.678c.721.422 1.565.625 2.538.625a6.76 6.76 0 0 0 2.05-.32c.69-.21 1.36-.505 2.02-.872.67-.352 1.317-.773 1.936-1.25.612-.488 1.2-1.005 1.762-1.55.357.87.784 1.559 1.263 2.092.494.516.978.916 1.46 1.2.5.278.945.462 1.348.546.414.084.725.135.938.135.373 0 .78-.06 1.217-.19.448-.124.894-.289 1.365-.491.483-.211.956-.447 1.416-.706.463-.25.918-.515 1.365-.795.41-.252.823-.533 1.236-.816.032.156.068.307.11.449.208.63.457 1.157.797 1.538.35.384.722.668 1.157.824a3.88 3.88 0 0 0 1.387.249c.6 0 1.222-.119 1.862-.362a9.042 9.042 0 0 0 1.882-1.033 14.28 14.28 0 0 0 1.835-1.538 17.23 17.23 0 0 0 1.692-1.94c.17.702.338 1.318.533 1.883.213.552.457 1.044.749 1.447.289.397.635.713 1.038.932.413.235.894.343 1.465.343.556 0 1.18-.078 1.835-.243a13.62 13.62 0 0 0 1.997-.616 22.6 22.6 0 0 0 3.892-1.99c.6-.362 1.13-.754 1.634-1.121a12.32 12.32 0 0 0 1.224-1.063c0-.478-.024-.905-.024-1.3 0-.384-.008-.757-.008-1.127zm-39.406.616c-.178.292-.375.587-.589.868-.21.263-.44.51-.69.735a3.45 3.45 0 0 1-.745.53 1.74 1.74 0 0 1-.795.2c-.53 0-.962-.073-1.29-.219-.326-.154-.58-.34-.764-.581a2.12 2.12 0 0 1-.373-.825 4.35 4.35 0 0 1-.1-.878c0-.76.146-1.597.403-2.522.283-.927.665-1.846 1.18-2.765a12.332 12.332 0 0 1 1.936-2.546 9.632 9.632 0 0 1 2.638-1.906c.014-.01.025.138.044.468.005.305.027.702.03 1.189.021.497.024 1.054.03 1.649.029.6.04 1.186.064 1.743.01.565.024 1.068.054 1.525s.07.784.122.997c-.36.873-.733 1.657-1.155 2.338zm6.2-9.83v-1.19c0-.419 0-.911.03-1.476.006-.557.036-1.181.055-1.862.05-.673.1-1.39.16-2.114.035-.373.089-.979.183-1.822.084-.86.2-1.816.357-2.884a80.84 80.84 0 0 1 .552-3.3c.21-1.051.476-2.091.794-3.115.298-.943.646-1.727 1.027-2.321.395-.609.836-.914 1.306-.914.273 0 .487.149.61.47.155.314.225.873.225 1.692 0 .606-.046 1.447-.135 2.487a24.39 24.39 0 0 1-.392 2.52 41.776 41.776 0 0 1-.665 2.684c-.25.919-.53 1.821-.85 2.735-.29.9-.604 1.768-.901 2.598a114.215 114.215 0 0 1-2.355 5.811v.001zm111.365 5.768c-.595.592-1.176 1.124-1.752 1.56-.573.445-1.133.84-1.69 1.202-.564.357-1.121.684-1.678.981-.554.314-1.106.611-1.646.925.446-.687.824-1.36 1.092-2 .286-.636.494-1.282.643-1.941a12.55 12.55 0 0 0 .335-2.003c.054-.684.092-1.403.092-2.155 0-.921-.127-1.792-.381-2.635a6.892 6.892 0 0 0-1.108-2.214 5.487 5.487 0 0 0-1.741-1.56c-.686-.38-1.484-.583-2.368-.583-.686 0-1.376.321-2.07.957-.7.63-1.465 1.478-2.314 2.527l-.346-.249a86.488 86.488 0 0 0 3.152-4.06c1.042-1.413 1.999-2.887 2.865-4.414a28.11 28.11 0 0 0 2.073-4.517c.546-1.519.795-2.978.795-4.414a20.906 20.906 0 0 0-.18-2.865c-.112-.903-.361-1.687-.734-2.346a4.113 4.113 0 0 0-1.592-1.584c-.692-.39-1.606-.592-2.74-.592-1.02 0-1.97.416-2.847 1.235-.873.825-1.676 1.927-2.422 3.287-.743 1.357-1.411 2.914-2.02 4.657a71.295 71.295 0 0 0-1.635 5.393 84.2 84.2 0 0 0-1.27 5.48 128.375 128.375 0 0 0-.908 4.905c-.352 2.192-.64 4.19-.854 5.971a308.726 308.726 0 0 0-.44 4.161c-.69.5-1.406.965-2.142 1.394-.938.522-1.9.968-2.903 1.335-.984.357-1.933.538-2.83.538-.292 0-.562-.035-.795-.086a2.132 2.132 0 0 1-.72-.322 3.06 3.06 0 0 1-.66-.624c-.217-.273-.431-.617-.666-1.014a15.096 15.096 0 0 0 3.64-1.503 13.494 13.494 0 0 0 2.88-2.206 9.685 9.685 0 0 0 1.897-2.622c.454-.927.684-1.86.684-2.784a5.82 5.82 0 0 0-.451-2.314 5.284 5.284 0 0 0-1.24-1.762 5.77 5.77 0 0 0-1.882-1.127 6.447 6.447 0 0 0-2.336-.411c-1.032 0-1.965.184-2.824.546a8.724 8.724 0 0 0-2.285 1.49 9.95 9.95 0 0 0-1.775 2.16 14.24 14.24 0 0 0-1.27 2.564 15.45 15.45 0 0 0-.76 2.752 16.361 16.361 0 0 0-.244 2.654c0 .034.004.067.004.1-.531.309-1.11.581-1.715.838-.64.26-1.208.392-1.703.392-.586 0-1.09-.162-1.5-.5a4.99 4.99 0 0 1-1.062-1.086 6.287 6.287 0 0 1-.806-1.56c.19-.378.42-.806.676-1.246.208-.398.457-.854.73-1.354.273-.514.58-1.068.919-1.665.005-.03.084-.19.238-.482.143-.29.308-.64.467-1.062.168-.397.309-.854.465-1.33.136-.476.214-.924.214-1.346 0-.55-.262-1.01-.79-1.365-.518-.35-1.205-.527-2.073-.527-.81 0-1.524.17-2.121.492-.6.32-.998.692-1.17 1.097l-5.372 11.994-.303.027 1.836-12.145c0-.435-.168-.784-.525-1.04-.354-.266-.854-.398-1.513-.398-.776 0-1.452.124-2.028.37-.57.263-1.081.64-1.5 1.11a8.865 8.865 0 0 0-1.246 1.866c-.428.862-.825 1.74-1.19 2.63-.42 1.003-.86 2.13-1.356 3.4a116.533 116.533 0 0 1-1.706 4.18l-.3.027 1.565-12.145c0-.435-.173-.784-.516-1.04-.354-.266-.865-.398-1.52-.398l-.534-.05c-.557 0-1.036.142-1.428.412-.397.28-.746.623-1.03 1.017a5.55 5.55 0 0 0-.721 1.375c-.192.506-.333.974-.446 1.45-.114.467-.2.878-.26 1.25-.038.368-.084.612-.094.755-.044.61-.073 1.127-.108 1.56-.04.41-.065.802-.07 1.175-.02.373-.02.746-.02 1.11v1.264c0 3.36.273 5.917.814 7.62.557 1.732 1.406 2.592 2.576 2.592.692 0 1.387-.279 2.106-.82.719-.55 1.419-1.3 2.09-2.283.67-.987 1.305-2.155 1.89-3.5a31.221 31.221 0 0 0 1.55-4.488l.65.106c0 .816.01 1.651.015 2.5.022.854.049 1.684.09 2.492.034.806.08 1.573.148 2.31.065.715.16 1.355.265 1.904.097.544.238.984.386 1.303.163.322.346.476.546.476.606 0 1.2-.203 1.803-.606.59-.402 1.182-.96 1.776-1.678.587-.714 1.152-1.573 1.709-2.57a31.726 31.726 0 0 0 1.584-3.293c.024.89.178 1.633.49 2.25.28.597.701 1.118 1.226 1.518a5.374 5.374 0 0 0 1.803.854 8.515 8.515 0 0 0 2.168.278c.967 0 1.997-.189 3.049-.57a12.931 12.931 0 0 0 1.863-.812 8.74 8.74 0 0 0 1.12 1.82 7.706 7.706 0 0 0 2.645 2.05c1.054.51 2.278.76 3.69.76.902 0 1.786-.096 2.656-.304.869-.191 1.72-.46 2.54-.803.801-.333 1.579-.719 2.329-1.154.41-.237.8-.479 1.179-.724.844.47 1.712.901 2.61 1.286a27.81 27.81 0 0 0 3.406 1.176 13.83 13.83 0 0 0 3.782.522h.56c.539-.212 1.07-.442 1.594-.69.433-.213.879-.443 1.316-.705.446-.249.79-.497 1.044-.754 1.003-.226 1.995-.5 2.973-.82.922-.286 1.82-.64 2.69-1.06a17.33 17.33 0 0 0 2.522-1.453 22.07 22.07 0 0 0 2.457-1.94l-1.727-3.71v.001zm-34.865-.603c.03-.46.09-.949.184-1.44.1-.5.243-.99.427-1.466.187-.486.43-.932.75-1.3.313-.389.703-.71 1.145-.943.452-.23.995-.363 1.65-.363.35 0 .645.233.902.654.249.444.357.979.357 1.668 0 .473-.173.96-.546 1.481a7.781 7.781 0 0 1-1.379 1.414 8.48 8.48 0 0 1-1.784 1.068c-.635.273-1.21.408-1.757.408 0-.33.016-.722.051-1.181zm17.684-10.299c.154-.803.322-1.686.53-2.649.2-.965.432-1.992.665-3.065a80.738 80.738 0 0 1 1.684-6.166c.255-.854.56-1.692.913-2.51.317-.73.635-1.306.952-1.728.327-.433.64-.64.949-.64.248 0 .45.083.597.243.149.164.267.356.34.562.1.213.136.416.165.608.02.19.035.324.035.384a16.982 16.982 0 0 1-.51 3.122 24.004 24.004 0 0 1-.99 3.038c-.392.997-.83 1.965-1.316 2.914-.495.949-.981 1.887-1.503 2.784a73.358 73.358 0 0 1-1.514 2.617c-.508.84-.96 1.654-1.362 2.427.095-.49.21-1.14.365-1.94v-.001zm7.436 10.288a18.37 18.37 0 0 1-.343 2.06c-.146.68-.336 1.35-.57 2.005-.23.602-.516 1.18-.855 1.728a4.69 4.69 0 0 1-1.132 1.197 2.34 2.34 0 0 1-1.4.44 9.78 9.78 0 0 1-1.36-.102c-.476-.081-.933-.157-1.37-.249-.5-.11-.993-.235-1.49-.383.051-.525.105-1.093.16-1.687.048-.516.148-1.127.232-1.809.08-.665.205-1.413.327-2.232.176-.992.427-1.857.77-2.57.349-.712.741-1.293 1.187-1.744.457-.462.943-.8 1.47-1.014a4.004 4.004 0 0 1 1.568-.338c.587 0 1.063.09 1.446.249.376.154.684.357.903.616.208.254.357.54.446.879.08.346.13.7.13 1.073 0 .565-.046 1.2-.12 1.881h.001z" fill="#e85738"/><path d="M31.677 100.478h34.791c6.92 0 13.353-1.032 19.286-3.106 5.753-1.976 10.926-5.03 15.513-9.166 4.944-4.5 8.585-9.85 10.923-16.056a51.198 51.198 0 0 0 2.833-9.91c.633-3.462.949-7.17.949-11.125 0-7.463-1.26-14.478-3.782-21.04-2.432-6.115-6.068-11.416-10.923-15.91C92.182 5.892 80.581 1.756 66.468 1.756h-34.79c-1.174 0-2.142.4-2.901 1.214-.763.808-1.146 1.794-1.146 2.965V96.29c0 1.17.383 2.162 1.146 2.97.76.812 1.727 1.217 2.9 1.217v.001zM46.511 22.93c0-1.168.387-2.16 1.147-2.968.76-.813 1.732-1.213 2.903-1.213h16.045c3.327 0 6.83.4 10.515 1.213 3.6.808 6.882 2.382 9.85 4.722 2.873 2.244 5.3 5.528 7.282 9.848 1.892 4.314 2.835 9.89 2.835 16.718 0 6.925-.943 12.453-2.835 16.586-1.981 4.314-4.409 7.6-7.282 9.845-2.968 2.43-6.201 4.046-9.715 4.86-3.684.808-7.239 1.208-10.65 1.208H50.561c-1.17 0-2.144-.4-2.903-1.208-.76-.814-1.147-1.8-1.147-2.971V22.93zm95.356 77.115h10.653c1.162 0 2.154-.402 2.96-1.219.808-.802 1.222-1.797 1.222-2.967V5.64c0-1.168-.414-2.157-1.222-2.97-.806-.809-1.798-1.211-2.96-1.211h-10.653c-1.173 0-2.135.402-2.911 1.21-.76.814-1.13 1.803-1.13 2.971v90.22c0 1.17.37 2.165 1.13 2.967.776.817 1.738 1.22 2.911 1.22v-.002zm103.297-.919c5.84-2.157 10.967-5.168 15.375-9.033 4.404-3.779 8.042-8.318 10.92-13.62 2.788-5.126 4.455-10.88 4.99-17.26.09-.278.155-1.308.211-3.108.038-1.795.098-3.593.198-5.393 0-1.168-.408-2.16-1.211-2.97-.814-.806-1.798-1.209-2.968-1.209h-48.552c-1.168 0-2.16.403-2.966 1.208-.808.811-1.216 1.803-1.216 2.971v8.628c0 1.173.408 2.157 1.216 2.965.806.814 1.798 1.217 2.966 1.217h28.046c1.174 0 2.052.38 2.633 1.146.587.765.606 1.687.065 2.765-.622 1.617-1.524 3.19-2.698 4.717-2.062 2.7-4.362 4.95-6.873 6.747a29.93 29.93 0 0 1-8.634 4.317 30.32 30.32 0 0 1-9.845 1.619c-4.497 0-8.676-.946-12.539-2.838-4.046-1.798-7.471-4.223-10.247-7.28-2.884-3.057-5.228-6.606-7.015-10.65-1.713-3.962-2.568-8.233-2.568-12.815 0-4.495.855-8.769 2.568-12.815 1.787-4.05 4.13-7.593 7.015-10.653 2.692-2.968 6.111-5.439 10.247-7.412 4.046-1.803 8.225-2.7 12.54-2.7 5.306 0 10.341 1.438 15.112 4.314a28.072 28.072 0 0 1 4.65 3.373c1.4 1.27 2.727 2.62 3.973 4.044a6.007 6.007 0 0 0 2.908 1.622c1.111.268 2.166.084 3.158-.54l9.174-5.536c.986-.622 1.595-1.474 1.816-2.56.23-1.076-.019-2.065-.735-2.963-4.138-5.398-9.3-9.798-15.507-13.223C243.999 2.065 235.81 0 226.82 0c-7.013 0-13.617 1.354-19.82 4.046-6.117 2.7-11.558 6.34-16.318 10.929a51.917 51.917 0 0 0-6.271 7.552c-1.847 2.693-3.441 5.623-4.796 8.764-2.69 6.384-4.04 13.034-4.04 19.959 0 7.014 1.35 13.618 4.04 19.824 2.612 6.025 6.296 11.42 11.067 16.186 4.67 4.676 10.117 8.358 16.318 11.058 6.203 2.7 12.807 4.044 19.821 4.044 6.38 0 12.497-1.078 18.343-3.236zM308.835 1.46H298.19c-1.176 0-2.132.402-2.908 1.21-.76.814-1.135 1.803-1.135 2.971V95.86c0 1.17.375 2.165 1.135 2.967.776.817 1.732 1.22 2.908 1.22h10.645c1.176 0 2.165-.403 2.962-1.22.82-.802 1.222-1.797 1.222-2.967V5.64c0-1.168-.402-2.157-1.222-2.97-.797-.809-1.786-1.211-2.962-1.211v.001zm42.624 17.02c1.168 0 2.16.4 2.974 1.204.8.821 1.205 1.808 1.205 2.973v73.634c0 1.17.403 2.162 1.22 2.97.802.812 1.792 1.217 2.967 1.217h10.515c1.165 0 2.157-.405 2.974-1.216.802-.809 1.21-1.8 1.21-2.971V22.657c0-1.165.398-2.152 1.217-2.973.8-.803 1.792-1.203 2.963-1.203h19.818c1.173 0 2.16-.411 2.974-1.222.805-.803 1.221-1.795 1.221-2.957V5.936c0-1.17-.416-2.157-1.221-2.965-.814-.814-1.8-1.217-2.974-1.217h-67.014c-1.176 0-2.165.403-2.979 1.217-.805.808-1.205 1.794-1.205 2.965v8.366c0 1.162.4 2.154 1.205 2.957.814.81 1.803 1.222 2.98 1.222h19.95v-.001zm225.205 80.782c.809-.806 1.211-1.8 1.211-2.971v-8.358c0-1.168-.402-2.157-1.21-2.962-.814-.814-1.798-1.22-2.974-1.22h-43.827c-1.16 0-2.15-.402-2.968-1.21-.803-.814-1.211-1.8-1.211-2.971V5.936c0-1.168-.406-2.157-1.211-2.965-.808-.814-1.798-1.214-2.965-1.214h-10.523c-1.17 0-2.16.4-2.968 1.214-.806.808-1.21 1.797-1.21 2.965V96.29c0 1.17.404 2.165 1.21 2.97.808.811 1.797 1.217 2.968 1.217h62.705c1.176 0 2.16-.406 2.973-1.216v.001zM441.006 84.6v-8.428c0-1.968-1.524-3.038-3.37-2.379l-4.736 1.674c-1.852.665-2.73-.282-1.946-2.082l12.355-28.395c.781-1.803 2.036-1.784 2.782.038l11.81 28.8c.74 1.817-.13 2.68-1.941 1.914l-4.712-2.003c-1.808-.767-3.292.22-3.292 2.182v8.68h15.6c1.164 0 2.313.364 3.437 1.08 1.12.72 1.947 1.574 2.493 2.566l4.043 8.087c.446 1.081 1.265 1.979 2.43 2.703 1.163.72 2.344 1.073 3.506 1.073h12.272c1.173 0 1.96-.354 2.363-1.073.402-.724.343-1.576-.203-2.562L447.1 3.009c-.538-1.076-1.44-1.62-2.698-1.62-1.251 0-2.154.544-2.7 1.62l-46.79 93.466c-.451.986-.476 1.838-.068 2.562.4.72 1.182 1.073 2.352 1.073h12.277c1.168 0 2.309-.354 3.447-1.073 1.116-.724 1.946-1.622 2.481-2.703l3.917-7.955c.446-1.078 1.257-1.979 2.433-2.698 1.162-.716 2.332-1.08 3.5-1.08h15.756V84.6zM28.317 141.573c2.79-3.055 6.16-5.54 10.112-7.423a30.837 30.837 0 0 1 12.68-2.69c2.79 0 5.485.403 8.09 1.214a62.23 62.23 0 0 1 3.78 1.476c1.26.54 2.47 1.173 3.638 1.884a36.533 36.533 0 0 1 3.3 2.298 34.02 34.02 0 0 1 3.033 2.694c.454.452.906.928 1.352 1.42.456.497.902.967 1.351 1.419.714.895 1.687 1.505 2.898 1.819 1.216.316 2.314.246 3.306-.205l9.98-4.05c1.08-.443 1.802-1.138 2.164-2.081.352-.943.217-1.916-.408-2.911-1.622-2.42-3.554-4.801-5.798-7.145a57.527 57.527 0 0 0-4.925-4.376 49.938 49.938 0 0 0-5.595-3.849c-3.776-2.24-7.917-3.998-12.41-5.252-4.581-1.26-9.169-1.89-13.756-1.89-7.017 0-13.623 1.347-19.83 4.042-6.11 2.697-11.555 6.341-16.312 10.928-4.593 4.766-8.231 10.204-10.92 16.316C1.346 151.41 0 158.023 0 165.038c0 7.012 1.346 13.612 4.046 19.824 2.69 6.206 6.328 11.596 10.92 16.178 4.677 4.681 10.113 8.371 16.314 11.066 6.206 2.692 12.812 4.036 19.83 4.036 4.586 0 9.174-.625 13.755-1.882a50.06 50.06 0 0 0 6.474-2.29 46.516 46.516 0 0 0 5.936-3.105c4.041-2.338 7.552-5.074 10.52-8.225a37.541 37.541 0 0 0 3.033-3.441c.948-1.217 1.87-2.453 2.765-3.709.625-.99.76-1.97.408-2.968-.362-.978-1.083-1.708-2.165-2.16l-9.98-4.046c-.991-.438-2.089-.487-3.305-.135-1.211.367-2.184.994-2.898 1.892-.457.464-.907.934-1.351 1.41-.446.5-.898.974-1.352 1.42-.981.992-2 1.911-3.033 2.77a28.868 28.868 0 0 1-3.3 2.358 27.273 27.273 0 0 1-3.638 1.886 62.368 62.368 0 0 1-3.78 1.484 27.046 27.046 0 0 1-8.09 1.211c-4.59 0-8.809-.943-12.68-2.824-3.952-1.706-7.322-4.136-10.112-7.282a38.138 38.138 0 0 1-6.876-10.653c-1.717-3.957-2.563-8.234-2.563-12.815 0-4.493.846-8.772 2.563-12.818 1.708-3.955 4-7.501 6.876-10.647zm281.891-25.758c-1.081-.184-1.976.176-2.706 1.07l-42.738 52.602c-.73.808-1.624 1.216-2.7 1.216-1.079 0-1.976-.408-2.692-1.216l-42.62-52.601c-.724-.895-1.621-1.255-2.702-1.07-1.073.175-1.62.853-1.62 2.024v92.241c0 1.16.406 2.155 1.222 2.963.814.814 1.787 1.216 2.963 1.216h10.515c1.175 0 2.16-.402 2.973-1.216.806-.808 1.211-1.803 1.211-2.963v-41.537c0-1.17.268-1.841.814-2.025.532-.184 1.162.184 1.886 1.076l25.487 30.615c.717.9 1.595 1.346 2.622 1.346 1.038 0 1.912-.446 2.641-1.346l25.623-30.615c.719-.984 1.324-1.37 1.821-1.135.492.213.744.913.744 2.084v41.537c0 1.16.397 2.155 1.203 2.963.813.814 1.8 1.216 2.968 1.216h10.663c1.079 0 2.02-.402 2.83-1.216.808-.808 1.21-1.803 1.21-2.963V117.84c0-1.17-.54-1.85-1.618-2.025zm93.501 15.102a27.031 27.031 0 0 0-4.254-5.122c-3.144-3.155-6.825-5.666-11.056-7.558-4.403-1.8-8.985-2.69-13.76-2.69h-39.782c-1.165 0-2.154.395-2.968 1.214-.802.798-1.21 1.792-1.21 2.963v90.357c0 1.16.408 2.155 1.21 2.963.814.814 1.803 1.216 2.968 1.216h10.656c1.165 0 2.138-.402 2.897-1.216.765-.808 1.15-1.803 1.15-2.963v-21.04c0-1.165.41-2.157 1.21-2.968.814-.808 1.8-1.211 2.968-1.211h17.802c6.207 0 11.775-.895 16.724-2.695 4.852-1.798 8.807-4.225 11.872-7.287 3.14-3.05 5.525-6.655 7.142-10.786 1.624-4.133 2.424-8.63 2.424-13.488 0-4.765-.895-9.353-2.692-13.759a54.48 54.48 0 0 0-3.3-5.93h-.001zm-13.82 26.168c-.284.99-.66 1.947-1.152 2.895a18.502 18.502 0 0 1-1.678 2.636c-1.355 1.613-3.063 2.865-5.139 3.768-2.154.99-4.576 1.484-7.282 1.484h-20.9c-1.168 0-2.154-.411-2.968-1.211-.8-.814-1.21-1.798-1.21-2.968v-27.252c0-1.165.41-2.152 1.21-2.952.814-.811 1.8-1.227 2.968-1.227h18.884c3.054 0 5.665.543 7.82 1.622 2.338 1.075 4.225 2.473 5.668 4.187 1.524 1.619 2.692 3.546 3.495 5.798.814 2.335 1.216 4.584 1.216 6.741 0 2.427-.313 4.579-.932 6.48v-.001zm112.736-41.413H492.11c-1.17 0-2.16.403-2.962 1.214-.814.813-1.217 1.808-1.217 2.973v54.483c0 4.938-.819 9.036-2.432 12.272-1.62 3.232-3.639 5.798-6.066 7.684-2.344 1.987-4.906 3.287-7.69 3.912-2.879.721-5.304 1.073-7.28 1.073a24.15 24.15 0 0 1-3.44-.26 40.992 40.992 0 0 1-3.98-.813c-2.603-.625-5.168-1.925-7.682-3.912-2.343-1.981-4.316-4.535-5.94-7.684-1.62-3.236-2.423-7.334-2.423-12.272v-54.483c0-1.165-.403-2.16-1.216-2.973-.811-.811-1.798-1.214-2.965-1.214h-10.653c-1.087 0-2.03.403-2.83 1.214-.82.813-1.217 1.808-1.217 2.973v54.618c0 6.385.984 12.093 2.96 17.126 1.984 5.123 4.866 9.488 8.634 13.08 3.508 3.512 7.958 6.301 13.353 8.361 5.033 1.987 10.836 2.963 17.4 2.963 6.557 0 12.406-.976 17.529-2.963 5.31-2.06 9.76-4.85 13.35-8.36 3.69-3.685 6.517-8.047 8.504-13.08 1-2.645 1.745-5.38 2.225-8.167.489-2.824.738-5.814.738-8.96v-54.618c0-1.165-.406-2.16-1.22-2.973-.8-.811-1.79-1.214-2.965-1.214zm95.35 58.937a22.84 22.84 0 0 0-5.12-7.82 30.79 30.79 0 0 0-1.691-1.557 18.834 18.834 0 0 0-1.957-1.416c-.987-.714-2.179-1.43-3.58-2.149-1.394-.724-2.624-1.311-3.708-1.751a66.762 66.762 0 0 0-2.214-.812 24.652 24.652 0 0 0-2.232-.678 49.197 49.197 0 0 0-4.041-1.149 42.71 42.71 0 0 0-3.909-.732 33.916 33.916 0 0 1-3.514-.687 61.527 61.527 0 0 0-3.103-.676 59.726 59.726 0 0 0-3.836-.938 72.559 72.559 0 0 1-3.981-.943 151.049 151.049 0 0 1-3.85-1.081 44.03 44.03 0 0 1-3.573-1.211c-2.238-.906-4.087-2.022-5.52-3.376-1.451-1.341-2.16-3.009-2.16-4.985 0-1.981.585-3.69 1.747-5.127.63-.72 1.33-1.341 2.095-1.884.77-.544 1.6-1.033 2.497-1.487a26.44 26.44 0 0 1 5.928-2.017c.96-.18 1.927-.317 2.898-.413a28.803 28.803 0 0 1 2.638-.127c4.85 0 9.382.854 13.626 2.557 3.133 1.17 6.469 2.879 9.97 5.128.991.624 2.05.854 3.172.665 1.117-.168 2.039-.755 2.766-1.744l5.663-8.09c.719-.99.989-2.027.81-3.106-.186-1.076-.77-1.976-1.76-2.695-.986-.546-1.886-1.076-2.69-1.625a93.345 93.345 0 0 0-2.561-1.619 88.402 88.402 0 0 0-3.917-2.084 41.507 41.507 0 0 0-4.18-1.819 128.45 128.45 0 0 0-4.383-1.29 47.575 47.575 0 0 0-4.658-1.005c-3.23-.538-6.914-.805-11.055-.805a62.27 62.27 0 0 0-12.95 1.343c-4.585.987-8.63 2.52-12.134 4.582-3.69 2.343-6.653 5.352-8.896 9.042-2.35 3.954-3.506 8.76-3.506 14.428 0 3.863.622 7.285 1.887 10.248 1.346 3.057 3.097 5.574 5.257 7.547a27.727 27.727 0 0 0 7.28 5.265 38.634 38.634 0 0 0 8.23 3.371c2.79.995 5.48 1.662 8.085 2.025 1.262.27 2.479.519 3.65.746 1.167.219 2.243.416 3.232.6 1.527.267 2.984.546 4.387.808a68.72 68.72 0 0 1 4.111.946c1.436.368 2.741.719 3.912 1.081 1.103.336 2.185.74 3.238 1.211 2.065.998 3.684 2.12 4.85 3.371 1.256 1.53 1.897 3.238 1.897 5.125a9.158 9.158 0 0 1-1.222 4.584c-.808 1.536-2.016 2.925-3.638 4.19a18.518 18.518 0 0 1-5.933 2.96c-2.339.813-5.034 1.21-8.088 1.21-5.941 0-11.466-1.253-16.6-3.767-3.862-1.8-7.82-3.96-11.855-6.474-.99-.63-2.022-.854-3.109-.679-1.078.184-1.93.77-2.565 1.757l-5.665 8.356c-.625.992-.85 2.024-.67 3.103.183 1.08.764 1.935 1.75 2.565.99.722 1.934 1.376 2.831 1.951.888.58 1.788 1.143 2.698 1.687a53.295 53.295 0 0 0 4.452 2.498c1.53.765 3.103 1.46 4.725 2.087 3.41 1.443 6.96 2.465 10.65 3.105 3.868.806 8.403 1.209 13.618 1.209 5.39 0 10.474-.627 15.24-1.882 4.503-1.167 8.457-3.06 11.874-5.665 3.327-2.428 5.887-5.536 7.69-9.312 1.792-3.855 2.695-8.318 2.695-13.35 0-4.398-.676-8.177-2.025-11.324zm-448.077-57.245c-.54-1.081-1.438-1.625-2.695-1.625-1.26 0-2.16.544-2.695 1.625l-46.795 93.46c-.457.987-.476 1.836-.068 2.563.4.72 1.181 1.073 2.352 1.073h12.277c1.157 0 2.314-.354 3.441-1.073 1.122-.727 1.946-1.619 2.492-2.697l3.912-7.964c.446-1.075 1.257-1.978 2.427-2.7 1.165-.719 2.333-1.076 3.509-1.076h38.297c1.17 0 2.313.357 3.443 1.076 1.114.722 1.946 1.584 2.492 2.568l4.041 8.096c.452 1.078 1.263 1.97 2.433 2.697 1.173.72 2.336 1.073 3.506 1.073h12.272c1.168 0 1.957-.354 2.357-1.073.403-.727.343-1.576-.203-2.562l-46.795-93.461z" fill="#89afc1"/></svg>